<svg width="50" height="50" viewBox="0 0 50 50" fill="none" xmlns="http://www.w3.org/2000/svg">
<path d="M3.125 18.0625V35.9375C3.125 37.5951 3.78348 39.1848 4.95558 40.3569C6.12769 41.529 7.7174 42.1875 9.375 42.1875H40.625C42.2826 42.1875 43.8723 41.529 45.0444 40.3569C46.2165 39.1848 46.875 37.5951 46.875 35.9375V18.0625L28.275 29.5062C27.2901 30.1122 26.1564 30.433 25 30.433C23.8436 30.433 22.7099 30.1122 21.725 29.5062L3.125 18.0625Z" fill="white"/>
<path d="M46.875 14.3917V14.0625C46.875 12.4049 46.2165 10.8152 45.0444 9.64308C43.8723 8.47098 42.2826 7.8125 40.625 7.8125H9.375C7.7174 7.8125 6.12769 8.47098 4.95558 9.64308C3.78348 10.8152 3.125 12.4049 3.125 14.0625V14.3917L23.3625 26.8458C23.855 27.1488 24.4218 27.3092 25 27.3092C25.5782 27.3092 26.145 27.1488 26.6375 26.8458L46.875 14.3917Z" fill="white"/>
</svg>
