<svg width="33" height="32" viewBox="0 0 33 32" fill="none" xmlns="http://www.w3.org/2000/svg">
<path d="M19.374 9.93491L17.1 5.58391C16.984 5.36691 16.759 5.22091 16.5 5.22091C16.241 5.22091 16.016 5.36591 15.902 5.57991L15.9 5.58391L5.91497 23.4779L19.374 9.93491ZM27.352 25.2019L24.54 7.70691C24.488 7.38191 24.209 7.13591 23.873 7.13591C23.684 7.13591 23.514 7.21291 23.391 7.33791L5.64697 25.2029L15.464 30.7349C15.75 30.8979 16.092 30.9949 16.456 30.9949C16.82 30.9949 17.163 30.8989 17.458 30.7299L17.448 30.7349L27.352 25.2019ZM6.36497 20.5889L9.31997 1.58091C9.37097 1.25291 9.65097 1.00391 9.98997 1.00391C10.248 1.00391 10.473 1.14791 10.587 1.36091L10.589 1.36491L13.767 7.32691L6.36497 20.5889Z" fill="white"/>
</svg>
