<svg width="50" height="50" viewBox="0 0 50 50" fill="none" xmlns="http://www.w3.org/2000/svg">
<path d="M25 43.75C29.1562 43.7498 33.1947 42.3692 36.4813 39.825C39.7679 37.2809 42.1165 33.7173 43.1583 29.6938M25 43.75C20.8438 43.7498 16.8053 42.3692 13.5187 39.825C10.2321 37.2809 7.8835 33.7173 6.84167 29.6938M25 43.75C30.1771 43.75 34.375 35.3542 34.375 25C34.375 14.6458 30.1771 6.25 25 6.25M25 43.75C19.8229 43.75 15.625 35.3542 15.625 25C15.625 14.6458 19.8229 6.25 25 6.25M43.1583 29.6938C43.5438 28.1938 43.75 26.6208 43.75 25C43.7552 21.7752 42.9247 18.6041 41.3396 15.7958M43.1583 29.6938C37.6024 32.7737 31.3525 34.385 25 34.375C18.4125 34.375 12.2229 32.6771 6.84167 29.6938M6.84167 29.6938C6.4474 28.1604 6.2486 26.5833 6.25001 25C6.25001 21.6563 7.12501 18.5146 8.66042 15.7958M25 6.25C28.3255 6.24861 31.5915 7.132 34.4629 8.80951C37.3343 10.487 39.7077 12.8983 41.3396 15.7958M25 6.25C21.6745 6.24861 18.4085 7.132 15.5371 8.80951C12.6657 10.487 10.2923 12.8983 8.66042 15.7958M41.3396 15.7958C36.8035 19.7249 31.0011 21.8836 25 21.875C18.7542 21.875 13.0417 19.5833 8.66042 15.7958" stroke="white" stroke-width="1.5" stroke-linecap="round" stroke-linejoin="round"/>
</svg>
