<svg width="50" height="50" viewBox="0 0 50 50" fill="none" xmlns="http://www.w3.org/2000/svg">
<g clip-path="url(#clip0_704_848)">
<path d="M41.6665 4.16699H8.33317C6.0415 4.16699 4.1665 6.04199 4.1665 8.33366V41.667C4.1665 43.9587 6.0415 45.8337 8.33317 45.8337H41.6665C43.9582 45.8337 45.8332 43.9587 45.8332 41.667V8.33366C45.8332 6.04199 43.9582 4.16699 41.6665 4.16699ZM16.8748 37.5003H10.4165V19.5837H16.8748V37.5003ZM13.5415 17.5003C11.6665 17.5003 10.4165 16.2503 10.4165 14.5837C10.4165 12.917 11.6665 11.667 13.7498 11.667C15.6248 11.667 16.8748 12.917 16.8748 14.5837C16.8748 16.2503 15.6248 17.5003 13.5415 17.5003ZM39.5832 37.5003H33.1248V27.7087C33.1248 25.0003 31.4582 24.3753 30.8332 24.3753C30.2082 24.3753 28.1248 24.792 28.1248 27.7087C28.1248 28.1253 28.1248 37.5003 28.1248 37.5003H21.6665V19.5837H28.1248V22.0837C28.9582 20.6253 30.6248 19.5837 33.7498 19.5837C36.8748 19.5837 39.3748 22.0837 39.3748 27.7087L39.5832 37.5003Z" fill="white"/>
</g>
<defs>
<clipPath id="clip0_704_848">
<rect width="50" height="50" fill="white"/>
</clipPath>
</defs>
</svg>
