<svg width="30" height="30" viewBox="0 0 30 30" fill="none" xmlns="http://www.w3.org/2000/svg">
<g clip-path="url(#clip0_554_203)">
<mask id="mask0_554_203" style="mask-type:luminance" maskUnits="userSpaceOnUse" x="0" y="0" width="30" height="30">
<path d="M30 0H0V30H30V0Z" fill="white"/>
</mask>
<g mask="url(#mask0_554_203)">
<path d="M14.0176 0.00807429C13.9531 0.0139394 13.7478 0.0344672 13.563 0.04913C9.30205 0.433294 5.31085 2.73241 2.78299 6.26614C1.37536 8.23095 0.475074 10.4597 0.134898 12.8204C0.0146628 13.6445 0 13.8879 0 15.0051C0 16.1225 0.0146628 16.3659 0.134898 17.1899C0.950146 22.8234 4.95895 27.5565 10.3959 29.3101C11.3695 29.6239 12.3959 29.838 13.563 29.967C14.0176 30.0169 15.9824 30.0169 16.437 29.967C18.4516 29.7441 20.1584 29.2456 21.8416 28.3864C22.0998 28.2544 22.1495 28.2193 22.1144 28.1899C22.0909 28.1723 20.9912 26.6973 19.6715 24.9142L17.2728 21.6738L14.2669 17.2251C12.6129 14.7794 11.2522 12.7794 11.2405 12.7794C11.2287 12.7764 11.217 14.753 11.2111 17.1664C11.2024 21.3923 11.1994 21.5624 11.1466 21.662C11.0704 21.8057 11.0117 21.8644 10.8886 21.9289C10.7947 21.9759 10.7126 21.9846 10.2698 21.9846H9.76246L9.62756 21.8996C9.53959 21.8439 9.47507 21.7705 9.43109 21.6855L9.3695 21.5535L9.37536 15.6737L9.38416 9.79106L9.47507 9.6767C9.522 9.61511 9.6217 9.53594 9.69209 9.49781C9.81231 9.43916 9.85924 9.4333 10.3666 9.4333C10.9648 9.4333 11.0645 9.45675 11.2199 9.62684C11.2639 9.67376 12.8915 12.1254 14.8388 15.0785C16.7859 18.0315 19.4486 22.0637 20.7566 24.0433L23.132 27.6415L23.2523 27.5624C24.3168 26.8703 25.4429 25.8849 26.3342 24.8585C28.2316 22.6796 29.4545 20.0227 29.8651 17.1899C29.9854 16.3659 30 16.1225 30 15.0051C30 13.8879 29.9854 13.6445 29.8651 12.8204C29.0499 7.18696 25.041 2.45382 19.6041 0.700156C18.6451 0.389306 17.6246 0.17523 16.481 0.0461975C16.1994 0.016872 14.261 -0.0153861 14.0176 0.00807429ZM20.1584 9.08139C20.2991 9.15178 20.4135 9.28666 20.4545 9.42743C20.478 9.50368 20.4839 11.1342 20.478 14.8086L20.4692 20.0814L19.5396 18.6561L18.607 17.231V13.3981C18.607 10.9201 18.6187 9.52714 18.6364 9.45969C18.6833 9.29546 18.7859 9.16644 18.9266 9.09019C19.0469 9.0286 19.0909 9.02274 19.5514 9.02274C19.9854 9.02274 20.0616 9.0286 20.1584 9.08139Z" fill="white"/>
</g>
</g>
<defs>
<clipPath id="clip0_554_203">
<rect width="30" height="30" fill="white"/>
</clipPath>
</defs>
</svg>
