<svg width="50" height="50" viewBox="0 0 50 50" fill="none" xmlns="http://www.w3.org/2000/svg">
<g clip-path="url(#clip0_704_838)">
<path fill-rule="evenodd" clip-rule="evenodd" d="M42.6072 7.26574C37.9303 2.58274 31.7099 0.00243921 25.0821 0C11.4252 0 0.310356 11.1136 0.305575 24.7742C0.303233 29.1412 1.44488 33.4037 3.61295 37.1602L0.0976562 49.9999L13.232 46.5547C16.8506 48.5293 20.9253 49.5686 25.0715 49.5698H25.0821C38.7368 49.5698 49.8529 38.4551 49.8575 24.7944C49.8599 18.1739 47.2855 11.95 42.6072 7.26691V7.26574ZM25.0821 45.3858H25.0738C21.3791 45.3847 17.7546 44.3914 14.5923 42.5156L13.8403 42.069L6.04593 44.1134L8.12609 36.5139L7.63659 35.7346C5.57545 32.4558 4.4861 28.666 4.48844 24.7755C4.49322 13.4218 13.731 4.18403 25.0905 4.18403C30.5908 4.18647 35.761 6.33084 39.6491 10.2238C43.5375 14.1156 45.677 19.2906 45.6747 24.7921C45.6698 36.1468 36.4322 45.3847 25.0821 45.3847V45.3858ZM36.3775 29.9634C35.7585 29.6533 32.715 28.1564 32.1471 27.9497C31.5792 27.7429 31.1671 27.6397 30.7548 28.2598C30.3426 28.88 29.1558 30.2747 28.7946 30.6868C28.4334 31.1003 28.0723 31.1514 27.4534 30.8412C26.8345 30.5312 24.8398 29.8778 22.4745 27.7691C20.6344 26.1273 19.3916 24.1007 19.0306 23.4805C18.6694 22.8604 18.9926 22.5254 19.3014 22.2176C19.5794 21.9398 19.9204 21.4943 20.2304 21.1331C20.5405 20.7719 20.6427 20.513 20.8493 20.1007C21.0562 19.6872 20.9527 19.3263 20.7984 19.016C20.6438 18.706 19.406 15.6588 18.8892 14.4198C18.3866 13.2128 17.8759 13.3768 17.497 13.3566C17.1357 13.3387 16.7235 13.3352 16.3101 13.3352C15.8967 13.3352 15.2266 13.4895 14.6588 14.1098C14.0909 14.7297 12.4919 16.2279 12.4919 19.2738C12.4919 22.3199 14.7099 25.265 15.02 25.6784C15.33 26.0918 19.3857 32.3441 25.5954 35.0266C27.0721 35.6645 28.2255 36.0458 29.1249 36.3309C30.6075 36.8026 31.957 36.7361 33.0237 36.5768C34.2131 36.3987 36.6865 35.0788 37.202 33.633C37.7175 32.1872 37.7175 30.947 37.5631 30.6891C37.4088 30.4314 36.9954 30.2757 36.3764 29.9658L36.3775 29.9634Z" fill="white"/>
</g>
<defs>
<clipPath id="clip0_704_838">
<rect width="50" height="49.9999" fill="white"/>
</clipPath>
</defs>
</svg>
