<svg width="50" height="50" viewBox="0 0 50 50" fill="none" xmlns="http://www.w3.org/2000/svg">
<path d="M19.5904 11.4375L11.0087 26.8132L14.7692 2.62405C14.7719 2.60633 14.7804 2.59209 14.7919 2.58208C14.8022 2.57315 14.813 2.56885 14.8279 2.56885C14.8411 2.56885 14.8504 2.57204 14.8583 2.57685C14.8661 2.58162 14.8725 2.5881 14.8769 2.59493L14.8814 2.6033L19.5904 11.4375ZM25.9938 47.1513C25.6829 47.3281 25.3201 47.4298 24.9311 47.4298C24.5394 47.4298 24.1752 47.3251 23.8762 47.1547L23.872 47.1523L9.67661 39.1531L36.4765 12.1704L36.4798 12.1671C36.4864 12.1604 36.4929 12.1563 36.4983 12.154C36.503 12.152 36.5096 12.1501 36.5201 12.1501C36.5338 12.1501 36.5441 12.154 36.554 12.1626C36.565 12.1721 36.5724 12.185 36.5749 12.2003L36.575 12.201L40.8577 38.8463L25.9933 47.1505L25.9938 47.1513ZM28.2651 15.3379L12.8774 30.8216L24.9356 9.21238L24.9466 9.19266L24.9505 9.18483C24.9554 9.1772 24.9622 9.17051 24.9699 9.16578C24.9776 9.16107 24.9866 9.15791 24.9998 9.15791C25.0114 9.15791 25.0194 9.16053 25.0273 9.16541C25.0363 9.17096 25.0465 9.1806 25.0544 9.19467L28.2651 15.3379Z" stroke="white" stroke-width="2"/>
</svg>
