<svg width="123" height="123" viewBox="0 0 123 123" fill="none" xmlns="http://www.w3.org/2000/svg">
<g clip-path="url(#clip0_694_16)">
<path d="M66.2028 3.02754L66.2029 3.0276L119.852 56.6664C122.553 59.3761 122.553 63.7547 119.852 66.4645L66.4529 119.853L66.4528 119.853C63.7534 122.553 59.3765 122.553 56.6771 119.853L3.02705 66.2033C0.327572 63.5038 0.327572 59.127 3.02705 56.4275L3.02714 56.4274L39.1 20.3447L51.8757 33.1204C50.6262 36.7619 51.4462 40.9603 54.3628 43.8675C55.1998 44.7045 56.1441 45.3657 57.1499 45.857V78.3038C56.1441 78.7952 55.1998 79.4564 54.3628 80.2933C50.2926 84.3635 50.2923 90.956 54.3619 95.0266C58.4231 99.0989 65.0171 99.0975 69.087 95.0275C73.1576 90.957 73.1576 84.3638 69.0871 80.2933L69.0823 80.2886C68.4148 79.63 67.6786 79.0687 66.8899 78.6188V48.2046L77.4288 58.7435C76.2076 62.3733 77.0371 66.5418 79.9328 69.4375C84.003 73.5077 90.5955 73.5081 94.6661 69.4385C98.7384 65.3772 98.737 58.7833 94.667 54.7133C91.9153 51.9615 88.0085 51.0817 84.5099 52.0562L71.7442 39.2904C72.7187 35.7919 71.8388 31.8851 69.087 29.1333C66.3455 26.3918 62.4772 25.5128 58.9932 26.4595L45.9942 13.4604L56.4271 3.02754C59.1265 0.328061 63.5034 0.328061 66.2028 3.02754Z" fill="black" stroke="white" stroke-width="4"/>
</g>
<defs>
<clipPath id="clip0_694_16">
<rect width="122.88" height="122.87" fill="white"/>
</clipPath>
</defs>
</svg>
