<svg width="123" height="123" viewBox="0 0 123 123" fill="none" xmlns="http://www.w3.org/2000/svg">
<g clip-path="url(#clip0_695_2)">
<path d="M1 1H121.88V121.88H1V1Z" fill="black" stroke="white" stroke-width="4"/>
<path fill-rule="evenodd" clip-rule="evenodd" d="M32.3101 102.69L41.7101 96.9998C43.5201 100.22 45.1701 102.94 49.1301 102.94C52.9201 102.94 55.3201 101.46 55.3201 95.6798V56.4098H66.8701V95.8398C66.8701 107.8 59.8601 113.24 49.6301 113.24C40.3901 113.24 35.0301 108.46 32.3101 102.69ZM73.1401 101.45L82.5401 96.0098C85.0201 100.05 88.2301 103.02 93.9201 103.02C98.7001 103.02 101.76 100.63 101.76 97.3298C101.76 93.3698 98.6301 91.9698 93.3501 89.6598L90.4601 88.4198C82.1301 84.8698 76.6001 80.4198 76.6001 71.0198C76.6001 62.3598 83.2001 55.7598 93.5101 55.7598C100.85 55.7598 106.13 58.3198 109.92 64.9998L100.93 70.7698C98.9501 67.2198 96.8101 65.8198 93.5101 65.8198C90.1301 65.8198 87.9801 67.9598 87.9801 70.7698C87.9801 74.2298 90.1201 75.6398 95.0701 77.7798L97.9601 79.0198C107.78 83.2298 113.3 87.5198 113.3 97.1698C113.3 107.56 105.13 113.25 94.1601 113.25C83.4501 113.25 76.5201 108.13 73.1401 101.45Z" fill="white"/>
</g>
<defs>
<clipPath id="clip0_695_2">
<rect width="122.88" height="122.88" fill="white"/>
</clipPath>
</defs>
</svg>
