<svg width="123" height="123" viewBox="0 0 123 123" fill="none" xmlns="http://www.w3.org/2000/svg">
<g clip-path="url(#clip0_695_7)">
<path fill-rule="evenodd" clip-rule="evenodd" d="M122.88 60.73C122.88 52.59 112.69 44.88 97.06 40.09C100.67 24.16 99.06 11.49 92 7.43C90.37 6.48 88.47 6.03 86.39 6.03V11.62C87.54 11.62 88.47 11.85 89.25 12.27C92.66 14.22 94.13 21.66 92.98 31.23C92.7 33.58 92.25 36.06 91.7 38.59C86.79 37.39 81.43 36.46 75.8 35.86C72.42 31.23 68.91 27.02 65.38 23.34C73.54 15.74 81.2 11.59 86.41 11.59V6C79.52 6 70.51 10.91 61.39 19.43C52.27 10.96 43.26 6.1 36.37 6.1V11.69C41.55 11.69 49.24 15.82 57.41 23.36C53.9 27.04 50.4 31.22 47.07 35.86C41.41 36.46 36.05 37.39 31.14 38.61C30.56 36.11 30.14 33.68 29.84 31.35C28.66 21.78 30.12 14.34 33.5 12.36C34.25 11.91 35.23 11.71 36.38 11.71V6.13C34.28 6.13 32.37 6.58 30.72 7.53C23.68 11.59 22.1 24.24 25.74 40.12C10.14 44.92 0 52.61 0 60.73C0 68.87 10.19 76.58 25.82 81.37C22.21 97.3 23.82 109.97 30.88 114.03C32.51 114.98 34.41 115.43 36.52 115.43C43.41 115.43 52.42 110.52 61.54 102C70.66 110.47 79.67 115.33 86.56 115.33C88.66 115.33 90.57 114.88 92.22 113.93C99.26 109.87 100.84 97.22 97.2 81.34C112.74 76.56 122.88 68.84 122.88 60.73ZM72.86 60.73C72.86 54.41 67.74 49.28 61.41 49.28C55.09 49.28 49.96 54.4 49.96 60.73C49.96 67.06 55.08 72.18 61.41 72.18C67.74 72.17 72.86 67.05 72.86 60.73ZM90.27 44.02C89.34 47.25 88.19 50.58 86.89 53.91C85.86 51.91 84.79 49.9 83.61 47.9C82.46 45.9 81.23 43.94 80 42.04C83.56 42.57 86.99 43.22 90.27 44.02ZM78.8 70.7C76.85 74.08 74.84 77.29 72.76 80.27C69.03 80.6 65.25 80.77 61.44 80.77C57.66 80.77 53.88 80.59 50.17 80.29C48.09 77.31 46.06 74.13 44.11 70.77C42.21 67.49 40.48 64.16 38.9 60.8C40.45 57.44 42.21 54.09 44.08 50.81C46.03 47.43 48.04 44.22 50.12 41.24C53.85 40.91 57.63 40.74 61.44 40.74C65.22 40.74 69 40.92 72.71 41.22C74.79 44.2 76.82 47.38 78.77 50.74C80.67 54.02 82.4 57.35 83.98 60.71C82.4 64.06 80.68 67.41 78.8 70.7ZM86.89 67.44C88.24 70.8 89.39 74.15 90.35 77.41C87.07 78.21 83.61 78.89 80.03 79.41C81.26 77.48 82.48 75.5 83.64 73.47C84.78 71.47 85.86 69.44 86.89 67.44ZM61.49 94.16C59.16 91.76 56.83 89.08 54.53 86.15C56.78 86.25 59.09 86.33 61.42 86.33C63.77 86.33 66.1 86.28 68.38 86.15C66.12 89.08 63.79 91.76 61.49 94.16ZM42.86 79.41C39.3 78.88 35.87 78.23 32.59 77.43C33.52 74.2 34.67 70.87 35.97 67.54C37 69.54 38.07 71.55 39.25 73.55C40.43 75.56 41.63 77.51 42.86 79.41ZM61.36 27.29C63.69 29.69 66.02 32.37 68.32 35.3C66.07 35.2 63.76 35.12 61.43 35.12C59.08 35.12 56.75 35.17 54.47 35.3C56.73 32.37 59.06 29.69 61.36 27.29ZM42.83 42.04C41.6 43.97 40.38 45.95 39.22 47.98C38.07 49.98 36.99 51.99 35.96 53.99C34.61 50.63 33.46 47.28 32.5 44.02C35.79 43.24 39.25 42.57 42.83 42.04ZM20.16 73.4C11.29 69.62 5.56 64.66 5.56 60.73C5.56 56.8 11.3 51.81 20.16 48.06C22.31 47.13 24.67 46.31 27.1 45.53C28.53 50.44 30.41 55.55 32.74 60.78C30.44 65.99 28.58 71.07 27.18 75.96C24.7 75.18 22.34 74.33 20.16 73.4ZM33.64 109.19C30.23 107.24 28.76 99.8 29.91 90.23C30.19 87.88 30.64 85.4 31.19 82.87C36.1 84.07 41.46 85 47.09 85.6C50.47 90.23 53.98 94.44 57.51 98.12C49.34 105.71 41.68 109.87 36.47 109.87C35.34 109.84 34.39 109.62 33.64 109.19ZM93.05 90.11C94.23 99.68 92.77 107.12 89.39 109.1C88.64 109.55 87.66 109.75 86.51 109.75C81.33 109.75 73.64 105.62 65.47 98.08C68.98 94.4 72.48 90.22 75.81 85.58C81.47 84.98 86.83 84.05 91.74 82.82C92.32 85.35 92.77 87.78 93.05 90.11ZM102.69 73.4C100.54 74.33 98.18 75.15 95.75 75.93C94.32 71.02 92.44 65.91 90.11 60.68C92.41 55.47 94.27 50.39 95.67 45.5C98.15 46.28 100.5 47.13 102.71 48.05C111.58 51.83 117.31 56.79 117.31 60.72C117.29 64.66 111.56 69.64 102.69 73.4Z" fill="white"/>
</g>
<defs>
<clipPath id="clip0_695_7">
<rect width="122.88" height="122.88" fill="white"/>
</clipPath>
</defs>
</svg>
