<svg width="123" height="123" viewBox="0 0 123 123" fill="none" xmlns="http://www.w3.org/2000/svg">
<g clip-path="url(#clip0_694_8)">
<path fill-rule="evenodd" clip-rule="evenodd" d="M61.44 24C45.06 24 34.82 32.1433 30.72 48.43C36.8667 40.29 44.0333 37.2367 52.22 39.27C56.9 40.43 60.22 43.8 63.94 47.53C69.94 53.61 76.94 60.64 92.16 60.64C108.54 60.64 118.78 52.4967 122.88 36.21C116.74 44.3567 109.573 47.41 101.38 45.37C96.7 44.21 93.38 40.84 89.66 37.11C83.64 31 76.67 24 61.44 24ZM30.72 60.64C14.34 60.64 4.1 68.7833 0 85.07C6.15333 76.93 13.32 73.8767 21.5 75.91C26.18 77.07 29.5 80.44 33.22 84.18C39.22 90.25 46.22 97.29 61.44 97.29C77.82 97.29 88.06 89.1467 92.16 72.86C86.02 81 78.8533 84.0467 70.66 82C65.98 80.84 62.66 77.47 58.94 73.74C52.94 67.66 45.94 60.62 30.72 60.62V60.64Z" fill="white"/>
</g>
<defs>
<clipPath id="clip0_694_8">
<rect width="122.88" height="122.88" fill="white"/>
</clipPath>
</defs>
</svg>
