<svg width="123" height="123" viewBox="0 0 123 123" fill="none" xmlns="http://www.w3.org/2000/svg">
<g clip-path="url(#clip0_694_11)">
<path d="M1 61.44V1H121.88V121.88H1V61.44Z" fill="black" stroke="white" stroke-width="4"/>
<path fill-rule="evenodd" clip-rule="evenodd" d="M26.9399 61.6504V66.6604H42.9099V112.13H54.2499V66.6604H70.2199V61.7404C70.2199 58.9804 70.2199 56.7304 70.0999 56.6704C70.0999 56.5804 60.3599 56.5504 48.5299 56.5504L27.0299 56.6404V61.6804L26.9399 61.6504ZM98.7299 56.5204C101.86 57.2604 104.26 58.6704 106.41 60.9104C107.55 62.1404 109.24 64.2904 109.36 64.8404C109.36 65.0204 104.05 68.6204 100.82 70.6204C100.7 70.7104 100.21 70.1904 99.7099 69.3904C98.1099 67.1204 96.4799 66.1304 93.9299 65.9504C90.2399 65.7004 87.7899 67.6404 87.7899 70.8604C87.7899 71.8404 87.9699 72.4004 88.3399 73.1904C89.1699 74.8804 90.7099 75.8904 95.4699 77.9804C104.26 81.7604 108.07 84.2504 110.37 87.8104C112.98 91.8004 113.56 98.0704 111.81 102.77C109.84 107.9 105.05 111.37 98.1999 112.51C96.0499 112.88 91.1299 112.82 88.8299 112.42C83.9199 111.5 79.2099 109.04 76.3299 105.88C75.1899 104.65 73.0099 101.36 73.1399 101.15L74.3099 100.41L78.9199 97.7404L82.3899 95.7104L83.1899 96.7904C84.1999 98.3904 86.4799 100.54 87.7999 101.28C91.7899 103.34 97.1399 103.06 99.7799 100.67C100.92 99.6304 101.41 98.5204 101.41 96.9804C101.41 95.5704 101.19 94.9204 100.49 93.8504C99.5099 92.5004 97.5399 91.3904 92.0099 88.9404C85.6499 86.2404 82.9499 84.5204 80.4299 81.8704C78.9899 80.2704 77.6699 77.7804 77.0499 75.7304C76.5899 73.9504 76.4399 69.5904 76.8699 67.8304C78.1899 61.6904 82.8299 57.3904 89.4699 56.1604C91.6199 55.7304 96.6899 55.9104 98.8099 56.4704L98.7299 56.5204Z" fill="white"/>
</g>
<defs>
<clipPath id="clip0_694_11">
<rect width="122.88" height="122.88" fill="white"/>
</clipPath>
</defs>
</svg>
