<svg width="50" height="50" viewBox="0 0 50 50" fill="none" xmlns="http://www.w3.org/2000/svg">
<g clip-path="url(#clip0_656_20)">
<path d="M25 49C38.2548 49 49 38.2548 49 25C49 11.7452 38.2548 1 25 1C11.7452 1 1 11.7452 1 25C1 38.2548 11.7452 49 25 49Z" stroke="white" stroke-width="1"/>
</g>
<g clip-path="url(#clip1_656_20)">
<path d="M25 1C11.7452 1 1 11.7452 1 25C1 38.2548 11.7452 49 25 49C38.2548 49 49 38.2548 49 25C49 11.7452 38.2548 1 25 1Z" stroke="white" stroke-width="1"/>
</g>
<defs>
<clipPath id="clip0_656_20">
<rect width="20" height="50" fill="white"/>
</clipPath>
<clipPath id="clip1_656_20">
<rect width="20" height="50" fill="white" transform="matrix(-1 0 0 -1 50 50)"/>
</clipPath>
</defs>
</svg>
