<svg width="61" height="60" viewBox="0 0 61 60" fill="none" xmlns="http://www.w3.org/2000/svg">
<path d="M36.4862 8.04753L36.4858 8.04742C36.3115 7.99991 36.1296 7.98722 35.9503 8.01007C35.7711 8.03292 35.5982 8.09086 35.4414 8.18059C35.2845 8.27031 35.147 8.39007 35.0364 8.53299C34.9259 8.67593 34.8447 8.83923 34.7973 9.01359L34.7972 9.01407L23.5473 50.2638L36.4862 8.04753ZM36.4862 8.04753C36.6606 8.09489 36.8239 8.17615 36.9668 8.28665C37.1098 8.39716 37.2295 8.53475 37.3192 8.69156C37.409 8.84837 37.4669 9.02133 37.4898 9.20054C37.5126 9.37974 37.4999 9.56167 37.4524 9.73596C37.4524 9.73598 37.4524 9.736 37.4524 9.73603L26.2024 50.986L26.2024 50.9862M36.4862 8.04753L26.2024 50.9862M26.2024 50.9862C26.1066 51.3383 25.8748 51.6379 25.5581 51.8192M26.2024 50.9862L25.5581 51.8192M44.59 44.1027L44.5963 44.0965L57.721 30.9717L44.59 44.1027ZM44.59 44.1027L44.584 44.1092M44.59 44.1027L44.584 44.1092M44.584 44.1092C44.4581 44.2443 44.3063 44.3526 44.1377 44.4278C43.969 44.5029 43.7869 44.5433 43.6023 44.5466C43.4177 44.5498 43.2343 44.5159 43.0631 44.4467C42.8919 44.3776 42.7363 44.2746 42.6058 44.1441C42.4752 44.0135 42.3723 43.858 42.3031 43.6867C42.234 43.5155 42.2 43.3322 42.2033 43.1475C42.2065 42.9629 42.2469 42.7808 42.3221 42.6122L41.8654 42.4087M44.584 44.1092L41.8654 42.4087M41.8654 42.4087L42.3221 42.6122C42.3972 42.4435 42.5056 42.2917 42.6407 42.1658L42.6471 42.1598M41.8654 42.4087L42.6471 42.1598M42.6471 42.1598L42.6534 42.1536M42.6471 42.1598L42.6534 42.1536M42.6534 42.1536L54.4534 30.3536L54.8069 30M42.6534 42.1536L54.8069 30M54.8069 30L54.4534 29.6465M54.8069 30L54.4534 29.6465M54.4534 29.6465L42.6536 17.8467M54.4534 29.6465L42.6536 17.8467M6.19271 30L6.54626 29.6465L18.346 17.8467L6.19271 30ZM6.19271 30L6.54626 30.3536M6.19271 30L6.54626 30.3536M6.54626 30.3536L18.3395 42.1468C18.5789 42.4068 18.7091 42.749 18.7028 43.1025C18.6965 43.4587 18.5522 43.7986 18.3003 44.0505C18.0484 44.3024 17.7085 44.4467 17.3523 44.453C16.9988 44.4593 16.6566 44.3291 16.3966 44.0897L3.27859 30.9717C3.0211 30.7139 2.87646 30.3644 2.87646 30C2.87646 29.6356 3.0211 29.2862 3.27859 29.0284L16.4031 15.9038L6.54626 30.3536ZM25.5581 51.8192C25.2414 52.0004 24.8657 52.0484 24.5136 51.9526M25.5581 51.8192L24.5136 51.9526M24.5136 51.9526C24.1615 51.8568 23.8619 51.625 23.6807 51.3083M24.5136 51.9526L23.6807 51.3083M23.6807 51.3083C23.4995 50.9917 23.4515 50.6161 23.5472 50.2641L23.6807 51.3083ZM43.6248 15.5017C43.2606 15.5017 42.9114 15.6461 42.6536 15.9033C42.6534 15.9035 42.6533 15.9036 42.6531 15.9038M43.6248 15.5017L41.7515 16.875C41.7515 16.3781 41.9487 15.9016 42.2998 15.55L42.6531 15.9038M43.6248 15.5017C43.9892 15.5017 44.3387 15.6463 44.5965 15.9038M43.6248 15.5017L44.5965 15.9038M42.6531 15.9038C42.3959 16.1616 42.2515 16.5108 42.2515 16.875C42.2515 17.2394 42.3961 17.5889 42.6536 17.8467M42.6531 15.9038L42.6536 17.8467M44.5965 15.9038L57.721 29.0284L44.5965 15.9038ZM58.1232 30C58.1232 29.6357 57.9786 29.2864 57.7213 29.0286L58.1232 30ZM58.1232 30C58.1232 30.3643 57.9786 30.7137 57.7213 30.9715L58.1232 30ZM18.3463 15.9036C18.0885 15.6462 17.7391 15.5017 17.3748 15.5017C17.0105 15.5017 16.6612 15.6462 16.4034 15.9036H18.3463ZM18.3463 15.9036C18.6036 16.1614 18.7482 16.5107 18.7482 16.875C18.7482 17.2393 18.6036 17.5887 18.3463 17.8465V15.9036Z" fill="white" stroke="black"/>
</svg>
