<svg width="282" height="885" viewBox="0 0 282 885" fill="none" xmlns="http://www.w3.org/2000/svg">
<path d="M186.88 8.39924C194.915 26.7087 229.748 63.5539 225.446 96.2848C221.144 129.016 167.07 132.116 166.231 165.508C165.392 198.9 225.925 223.874 221.42 256.566C216.914 289.258 155.628 290.982 144.604 322.43C133.579 353.877 180.138 376.185 168.502 407.516C156.867 438.847 89.9994 439.505 88.7531 472.82C87.5068 506.134 168.452 535.004 162.52 567.424C156.589 599.844 65.398 595.86 60.2813 628.435C55.1645 661.01 137.169 690.083 137.96 723.786C138.75 757.489 73.8793 758.528 64.0772 790.209C54.2751 821.89 85.3193 858.012 90.9093 875.855" stroke="url(#paint0_linear_551_90)" stroke-linecap="round"/>
<path d="M167.142 19.315C175.694 36.554 210.977 70.1034 208.189 102.062C205.402 134.021 153.169 140.33 153.763 172.717C154.357 205.104 214.027 225.586 211.04 257.519C208.054 289.453 148.779 294.87 139.428 325.997C130.077 357.125 176.102 375.879 166.154 406.931C156.206 437.982 91.4817 442.709 91.6779 475.046C91.874 507.382 171.474 530.389 167.096 562.146C162.717 593.903 74.2433 595.622 70.6603 627.48C67.0773 659.338 147.712 682.476 149.897 715.064C152.082 747.653 89.307 752.626 81.1492 783.905C72.9913 815.183 104.575 848.264 110.74 865.201" stroke="url(#paint1_linear_551_90)" stroke-linecap="round"/>
<path d="M148.481 31.495C157.479 47.6499 193.024 77.9507 191.672 109.039C190.32 140.126 140.054 149.421 141.991 180.717C143.929 212.012 202.517 228.182 200.971 259.257C199.426 290.333 142.31 299.195 134.573 329.88C126.836 360.564 172.151 375.895 163.833 406.543C155.516 437.191 93.0989 445.719 94.6492 476.99C96.1994 508.261 174.175 525.655 171.275 556.645C168.375 587.635 82.8556 594.703 80.7297 625.742C78.6037 656.781 157.585 674.239 161.07 705.632C164.555 737.025 104.034 745.672 97.4582 776.43C90.8821 807.188 122.829 837.262 129.505 853.27" stroke="url(#paint2_linear_551_90)" stroke-linecap="round"/>
<path d="M130.95 44.8325C140.325 59.8957 175.95 87.0093 175.95 117.136C175.95 147.262 127.763 159.312 130.95 189.439C134.138 219.565 191.438 231.616 191.25 261.742C191.063 291.868 136.238 303.919 130.05 334.045C123.863 364.171 168.3 376.222 161.55 406.348C154.8 436.474 94.8375 448.525 97.65 478.651C100.463 508.778 176.55 520.828 175.05 550.954C173.55 581.081 91.2 593.131 90.45 623.257C89.7 653.384 166.763 665.434 171.45 695.561C176.138 725.687 118.013 737.737 112.95 767.864C107.888 797.99 140.025 825.104 147.15 840.167" stroke="url(#paint3_linear_551_90)" stroke-linecap="round"/>
<path d="M114.598 59.2182C124.281 73.1878 159.809 97.1898 161.074 126.272C162.339 155.354 116.327 169.925 120.669 198.813C125.011 227.701 180.831 235.84 181.915 264.934C182.998 294.027 130.579 309.003 125.871 338.462C121.163 367.921 164.566 376.845 159.315 406.339C154.064 435.832 96.6852 451.121 100.665 480.032C104.645 508.942 178.601 515.937 178.418 545.11C178.235 574.284 99.2448 590.937 99.7856 620.065C100.326 649.193 175.224 656.128 181.014 684.924C186.804 713.721 131.199 728.897 127.577 758.288C123.954 787.679 156.116 811.893 163.627 826" stroke="url(#paint4_linear_551_90)" stroke-linecap="round"/>
<path d="M99.4659 74.5409C109.387 87.4206 144.65 108.4 147.089 136.364C149.528 164.328 105.775 181.178 111.173 208.767C116.571 236.356 170.733 240.806 172.998 268.791C175.263 296.777 125.349 314.408 122.045 343.1C118.74 371.791 160.964 377.752 157.137 406.51C153.311 435.267 98.6281 453.502 103.678 481.135C108.727 508.768 180.329 511.009 181.376 539.149C182.422 567.289 106.959 588.156 108.702 616.208C110.445 644.26 182.951 646.386 189.741 673.799C196.531 701.211 143.554 719.23 141.294 747.789C139.034 776.348 171.06 797.738 178.893 810.882" stroke="url(#paint5_linear_551_90)" stroke-linecap="round"/>
<path d="M85.5887 90.6847C95.6822 102.484 130.518 120.542 134.038 147.322C137.557 174.101 96.1304 192.989 102.484 219.228C108.837 245.467 161.18 246.457 164.533 273.269C167.886 300.081 120.559 320.094 118.578 347.924C116.598 375.754 157.507 378.926 155.027 406.851C152.546 434.776 100.653 455.662 106.672 481.964C112.692 508.267 181.736 506.07 183.922 533.104C186.109 560.139 114.314 584.822 117.167 611.729C120.02 638.636 189.93 636.274 197.617 662.258C205.304 688.243 155.043 708.816 154.063 736.455C153.082 764.094 184.818 782.743 192.911 794.924" stroke="url(#paint6_linear_551_90)" stroke-linecap="round"/>
<path d="M72.9944 107.535C83.1942 118.269 117.449 133.518 121.954 159.057C126.458 184.596 87.4103 205.275 94.6172 230.122C101.824 254.968 152.201 252.742 156.547 278.322C160.892 303.901 116.218 326.021 115.477 352.904C114.737 379.786 154.209 380.353 152.992 407.357C151.775 434.362 102.745 457.598 109.634 482.526C116.523 507.454 182.826 501.148 186.059 527.013C189.292 552.877 121.284 580.974 125.153 606.676C129.022 632.378 196.152 625.86 204.63 650.381C213.109 674.902 165.636 697.739 165.849 724.377C166.063 751.015 197.361 767.022 205.653 778.244" stroke="url(#paint7_linear_551_90)" stroke-linecap="round"/>
<path d="M61.7055 124.974C71.9478 134.663 105.477 147.228 110.869 171.478C116.261 195.728 79.6296 217.952 87.5874 241.373C95.5452 264.795 143.825 259.602 149.066 283.9C154.307 308.199 112.333 332.148 112.745 358.006C113.156 383.864 151.083 382.015 151.041 408.019C151 434.023 104.891 459.308 112.547 482.827C120.203 506.345 183.605 496.269 187.79 520.909C191.975 545.549 127.845 576.652 132.633 601.097C137.421 625.542 201.609 615.212 210.774 638.244C219.939 661.275 175.309 686.083 176.626 711.648C177.943 737.214 208.665 750.686 217.096 760.959" stroke="url(#paint8_linear_551_90)" stroke-linecap="round"/>
<path d="M51.7364 142.885C61.9595 151.553 94.6269 161.57 100.807 184.491C106.988 207.412 72.7965 230.936 81.4021 252.908C90.0076 274.88 136.076 266.979 142.114 289.956C148.152 312.933 108.91 338.435 110.383 363.199C111.856 387.964 148.138 383.894 149.182 408.827C150.227 433.759 107.077 460.791 115.397 482.874C123.717 504.958 184.08 491.46 189.119 514.828C194.158 538.196 133.975 571.897 139.585 595.042C145.194 618.187 206.299 604.398 216.046 625.923C225.793 647.448 184.041 673.933 186.369 698.362C188.698 722.792 218.712 733.847 227.223 743.185" stroke="url(#paint9_linear_551_90)" stroke-linecap="round"/>
<path d="M43.0966 161.148C53.2411 168.826 84.9213 176.437 91.79 198C98.6588 219.563 66.9163 244.142 76.0664 264.649C85.2166 285.157 128.976 274.811 135.711 296.436C142.445 318.06 105.952 344.837 108.392 368.449C110.832 392.06 145.386 385.972 147.423 409.77C149.46 433.568 109.29 462.045 118.172 482.677C127.054 503.309 184.26 486.742 190.055 508.802C195.851 530.861 139.656 566.751 145.988 588.562C152.32 610.373 210.225 593.484 220.449 613.495C230.672 633.505 191.817 661.375 195.062 684.614C198.308 707.853 227.492 716.619 236.026 725.041" stroke="url(#paint10_linear_551_90)" stroke-linecap="round"/>
<path d="M35.7868 179.647C45.7958 186.368 76.3734 191.728 83.8302 211.91C91.287 232.093 61.9874 257.486 71.5796 276.523C81.1719 295.56 122.542 283.038 129.873 303.288C137.204 323.538 103.458 351.317 106.77 373.723C110.081 396.13 142.834 388.231 145.769 410.839C148.704 433.448 111.515 463.074 120.856 482.246C130.198 501.417 184.154 482.142 190.606 502.864C197.058 523.585 144.871 561.258 151.826 581.71C158.78 602.162 213.39 582.536 223.987 601.034C234.584 619.532 198.627 648.497 202.692 670.499C206.757 692.502 234.999 699.115 243.5 706.645" stroke="url(#paint11_linear_551_90)" stroke-linecap="round"/>
<path d="M29.8029 198.263C39.6226 204.068 68.9924 207.336 76.9372 226.126C84.8821 244.916 58.0052 270.885 67.9381 288.454C77.871 306.024 116.787 291.596 124.615 310.458C132.443 329.32 101.426 357.831 105.512 378.991C109.598 400.15 140.491 390.648 144.226 412.023C147.961 433.398 113.74 463.877 123.439 481.59C133.138 499.303 183.772 477.681 190.782 497.045C197.791 516.409 149.607 555.462 157.084 574.539C164.561 593.616 215.803 571.62 226.671 588.615C237.54 605.61 204.465 635.385 209.252 656.114C214.04 676.843 241.234 681.446 249.651 688.113" stroke="url(#paint12_linear_551_90)" stroke-linecap="round"/>
<path d="M25.1333 216.881C34.7126 221.812 62.7807 223.156 71.114 240.55C79.4474 257.943 54.9596 284.257 65.1333 300.37C75.3069 316.483 111.722 300.424 119.947 317.893C128.173 335.361 99.8527 364.341 104.614 384.22C109.375 404.099 138.364 393.206 142.8 413.311C147.236 433.416 115.95 464.459 125.908 480.723C135.865 496.986 183.127 473.381 190.594 491.377C198.062 509.373 153.85 549.409 161.751 567.103C169.651 584.798 217.476 560.801 228.516 576.311C239.556 591.822 209.33 622.127 214.741 641.554C220.151 660.981 246.206 663.726 254.486 669.561" stroke="url(#paint13_linear_551_90)" stroke-linecap="round"/>
<path d="M21.761 235.389C31.0523 239.493 57.7359 239.087 66.3594 255.088C74.9828 271.09 52.837 297.521 63.1535 312.198C73.4701 326.875 107.355 309.458 115.879 325.538C124.403 341.617 98.7312 370.807 104.068 389.381C109.405 407.955 136.458 395.884 141.496 414.692C146.534 433.499 118.134 464.824 128.251 479.657C138.368 494.49 182.232 469.264 190.059 485.889C197.886 502.514 157.594 543.145 165.819 559.459C174.044 575.772 218.426 550.141 229.539 564.194C240.653 578.247 213.228 608.809 219.163 626.915C225.097 645.021 249.929 646.064 258.025 651.104" stroke="url(#paint14_linear_551_90)" stroke-linecap="round"/>
<path d="M19.6617 253.674C28.6208 257.002 53.8486 255.023 62.6654 269.647C71.4822 284.27 51.6182 310.599 61.9822 323.868C72.3462 337.137 103.687 318.634 112.413 333.338C121.138 348.041 98.0526 377.19 103.866 394.443C109.679 411.697 134.776 398.661 140.317 416.153C145.857 433.645 120.277 464.978 130.459 478.406C140.641 491.835 181.101 465.348 189.19 480.609C197.279 495.87 160.832 536.717 169.285 551.66C177.737 566.602 218.671 539.701 229.763 552.332C240.855 564.964 216.168 595.516 222.527 612.291C228.886 629.066 252.421 628.569 260.288 632.853" stroke="url(#paint15_linear_551_90)" stroke-linecap="round"/>
<path d="M18.8061 271.627C27.3923 274.232 51.1048 270.863 60.0202 284.13C68.9356 297.397 51.2808 323.412 61.5999 335.309C71.919 347.206 100.719 327.889 109.552 341.237C118.385 354.584 97.8068 383.452 103.997 399.378C110.188 415.304 133.323 401.514 139.266 417.682C145.209 433.85 122.369 464.925 132.523 476.983C142.677 489.042 179.75 461.651 188.005 475.563C196.26 489.474 163.561 530.17 172.146 543.76C180.731 557.349 218.234 529.539 229.214 540.792C240.193 552.045 218.162 582.33 224.848 597.773C231.534 613.215 253.711 611.345 261.306 614.917" stroke="url(#paint16_linear_551_90)" stroke-linecap="round"/>
<path d="M19.1579 289.143C27.3345 291.081 49.4838 286.507 58.4055 298.448C67.3273 310.388 51.7972 335.887 61.9823 346.457C72.1673 357.026 98.4466 337.161 107.294 349.182C116.141 361.203 97.9806 389.556 104.45 404.158C110.919 418.759 132.101 404.425 138.347 419.268C144.593 434.111 124.396 464.674 134.433 475.405C144.469 486.136 178.195 458.191 186.522 470.776C194.849 483.362 165.779 523.552 174.403 535.815C183.028 548.078 217.14 519.714 227.919 529.638C238.699 539.563 219.23 569.335 226.146 583.453C233.061 597.57 253.828 594.496 261.113 597.402" stroke="url(#paint17_linear_551_90)" stroke-linecap="round"/>
<path d="M20.6757 306.12C28.4097 307.451 48.96 301.859 57.7988 312.51C66.6376 323.162 53.1363 347.953 63.1021 357.246C73.0679 366.539 96.862 346.387 105.635 357.118C114.407 367.849 98.5591 395.468 105.21 408.755C111.862 422.043 131.108 407.371 137.56 420.898C144.013 434.425 126.348 464.232 136.182 473.685C146.015 483.138 176.451 454.982 184.76 466.272C193.068 477.562 167.489 516.908 176.062 527.879C184.636 538.85 215.417 510.278 225.913 518.932C236.41 527.586 219.395 556.611 226.444 569.419C233.493 582.227 252.81 578.121 259.749 580.411" stroke="url(#paint18_linear_551_90)" stroke-linecap="round"/>
<path d="M23.3126 322.46C30.5751 323.245 49.5024 316.824 58.1724 326.231C66.8424 335.638 55.2634 359.539 64.9287 367.615C74.5941 375.69 95.9546 355.506 104.566 364.992C113.178 374.477 99.5259 401.152 106.264 413.146C113.002 425.139 130.346 410.331 136.908 422.559C143.47 434.787 128.214 463.609 137.763 471.841C147.311 480.073 174.538 452.038 182.74 462.072C190.941 472.106 168.695 510.284 177.13 520.005C185.566 529.725 213.098 501.283 223.232 508.731C233.365 516.179 218.683 544.234 225.772 555.756C232.862 567.279 250.7 562.315 257.26 564.041" stroke="url(#paint19_linear_551_90)" stroke-linecap="round"/>
<path d="M27.0167 338.07C33.7828 338.373 51.0751 331.31 59.4942 339.526C67.9133 347.741 58.1399 370.583 67.4283 377.505C76.7166 384.427 95.7102 364.46 104.078 372.752C112.446 381.043 100.863 406.579 107.594 417.305C114.326 428.032 129.812 413.284 136.39 424.239C142.969 435.194 129.984 462.814 139.17 469.889C148.356 476.963 172.474 449.371 180.484 458.196C188.494 467.02 169.404 503.725 177.618 512.245C185.833 520.765 210.216 492.778 219.913 499.092C229.611 505.405 217.127 532.279 224.166 542.549C231.204 552.819 247.546 547.171 253.698 548.388" stroke="url(#paint20_linear_551_90)" stroke-linecap="round"/>
<path d="M31.7302 352.862C37.9795 352.748 53.6366 345.23 61.7268 352.313C69.8169 359.396 61.7234 381.021 70.563 386.861C79.4026 392.701 96.1107 373.19 104.157 380.346C112.203 387.502 102.549 411.715 109.184 421.211C115.82 430.707 129.504 416.211 136.007 425.927C142.51 435.642 131.648 461.858 140.399 467.845C149.151 473.831 170.276 446.993 178.014 454.661C185.751 462.329 169.626 497.276 177.539 504.651C185.453 512.027 206.808 484.809 216 490.064C225.192 495.319 214.762 520.819 221.662 529.876C228.562 538.934 243.399 532.776 249.12 533.539" stroke="url(#paint21_linear_551_90)" stroke-linecap="round"/>
<path d="M37.392 366.753C43.1081 366.287 57.1415 358.5 64.8293 364.516C72.5171 370.532 65.9692 390.796 74.2935 395.631C82.6179 400.466 97.1359 381.639 104.786 387.724C112.437 393.81 104.563 416.533 111.015 424.842C117.467 433.151 129.417 419.091 135.757 427.608C142.096 436.126 133.197 460.753 141.446 465.727C149.696 470.701 167.966 444.912 175.354 451.484C182.742 458.056 169.372 490.979 176.91 497.273C184.448 503.567 202.913 477.416 211.537 481.696C220.161 485.975 211.628 509.921 218.305 517.813C224.982 525.705 238.319 519.211 243.585 519.579" stroke="url(#paint22_linear_551_90)" stroke-linecap="round"/>
<path d="M43.9353 379.665C49.1062 378.914 61.5389 371.04 68.7558 376.061C75.9727 381.082 70.8282 399.853 78.5763 403.766C86.3244 407.678 98.7612 389.753 105.947 394.84C113.132 399.926 106.882 421.006 113.067 428.18C119.253 435.353 129.546 421.903 135.638 429.272C141.73 436.642 134.623 459.509 142.308 463.552C149.994 467.594 165.562 443.134 172.529 448.677C179.496 454.22 168.657 484.875 175.749 490.157C182.841 495.439 198.572 470.64 206.57 474.031C214.568 477.421 207.767 499.649 214.14 506.431C220.513 513.214 232.365 506.553 237.161 506.585" stroke="url(#paint23_linear_551_90)" stroke-linecap="round"/>
<path d="M51.2902 391.526C55.9083 390.558 66.7746 382.775 73.4572 386.878C80.1397 390.982 76.2497 408.145 83.3664 411.221C90.4831 414.297 100.96 397.482 107.617 401.645C114.274 405.809 109.48 425.11 115.32 431.206C121.16 437.302 129.885 424.629 135.648 430.907C141.412 437.184 135.918 458.14 142.984 461.337C150.049 464.534 163.085 441.667 169.563 446.253C176.042 450.84 167.499 479.007 174.079 483.351C180.66 487.696 193.828 464.515 201.149 467.108C208.47 469.701 203.227 490.065 209.22 495.799C215.213 501.533 225.604 494.874 229.916 494.63" stroke="url(#paint24_linear_551_90)" stroke-linecap="round"/>
<path d="M59.382 402.273C63.444 401.155 72.7892 393.637 78.8795 396.905C84.9699 400.172 82.1794 415.626 88.6154 417.957C95.0515 420.289 103.703 404.775 109.772 408.098C115.842 411.42 112.332 428.822 117.751 433.906C123.17 438.99 130.426 427.252 135.785 432.501C141.143 437.75 137.075 456.66 143.471 459.102C149.866 461.544 160.555 440.514 166.482 444.222C172.41 447.93 165.914 473.412 171.923 476.9C177.932 480.388 188.727 459.072 195.325 460.964C201.924 462.855 198.056 481.226 203.597 485.979C209.138 490.733 218.105 484.239 221.923 483.782" stroke="url(#paint25_linear_551_90)" stroke-linecap="round"/>
<path d="M68.1345 411.845C71.6414 410.644 79.5216 403.559 84.9675 406.078C90.4134 408.598 88.5623 422.255 94.2747 423.937C99.9872 425.619 106.957 411.586 112.387 414.154C117.817 416.722 115.411 432.122 120.34 436.265C125.268 440.409 131.162 429.751 136.044 434.042C140.925 438.333 138.09 455.081 143.771 456.862C149.452 458.643 157.993 439.677 163.313 442.59C168.633 445.503 163.926 468.128 169.309 470.844C174.692 473.56 183.314 454.338 189.152 455.627C194.99 456.916 192.308 473.181 197.331 477.03C202.353 480.878 209.942 474.709 213.261 474.098" stroke="url(#paint26_linear_551_90)" stroke-linecap="round"/>
<path d="M77.4661 420.191C80.4231 418.973 86.9046 412.483 91.6599 414.345C96.4152 416.207 95.3392 427.997 100.291 429.128C105.244 430.259 110.687 417.87 115.431 419.775C120.175 421.68 118.688 434.991 123.061 438.272C127.434 441.552 132.083 432.111 136.421 435.52C140.759 438.929 138.955 453.418 143.884 454.635C148.813 455.852 155.418 439.157 160.08 441.363C164.743 443.568 161.556 463.189 166.264 465.223C170.973 467.257 177.638 450.337 182.683 451.125C187.728 451.912 186.038 465.98 190.48 469.003C194.923 472.025 201.189 466.334 204.007 465.632" stroke="url(#paint27_linear_551_90)" stroke-linecap="round"/>
<path d="M87.2948 427.266C89.7116 426.097 94.8705 420.355 98.8952 421.655C102.92 422.954 102.451 432.822 106.613 433.503C110.776 434.185 114.857 423.588 118.874 424.924C122.89 426.26 122.135 437.416 125.893 439.916C129.651 442.416 133.178 434.315 136.911 436.924C140.645 439.533 139.668 451.685 143.814 452.439C147.96 453.193 152.852 438.952 156.812 440.543C160.772 442.133 158.83 458.629 162.822 460.074C166.814 461.519 171.748 447.089 175.975 447.479C180.202 447.869 179.305 459.665 183.111 461.947C186.917 464.228 191.926 459.163 194.245 458.431" stroke="url(#paint28_linear_551_90)" stroke-linecap="round"/>
<path d="M97.5349 433.031C99.4251 431.975 103.347 427.128 106.608 427.963C109.868 428.798 109.836 436.705 113.185 437.039C116.534 437.374 119.427 428.702 122.682 429.567C125.937 430.431 125.722 439.382 128.811 441.19C131.9 442.997 134.436 436.347 137.509 438.243C140.582 440.139 140.224 449.897 143.563 450.29C146.901 450.683 150.315 439.059 153.534 440.13C156.753 441.201 155.774 454.478 159.014 455.431C162.253 456.384 165.694 444.606 169.084 444.705C172.475 444.803 172.168 454.272 175.288 455.903C178.408 457.534 182.233 453.235 184.061 452.533" stroke="url(#paint29_linear_551_90)" stroke-linecap="round"/>
<path d="M108.099 437.456C109.48 436.576 112.26 432.76 114.729 433.231C117.198 433.703 117.432 439.627 119.951 439.718C122.471 439.81 124.355 433.179 126.821 433.673C129.287 434.166 129.417 440.88 131.79 442.088C134.162 443.295 135.845 438.195 138.209 439.47C140.572 440.744 140.622 448.07 143.135 448.206C145.648 448.343 147.826 439.475 150.272 440.125C152.718 440.775 152.417 450.765 154.875 451.325C157.332 451.886 159.525 442.902 162.068 442.816C164.61 442.729 164.689 449.836 167.079 450.909C169.469 451.983 172.194 448.582 173.54 447.97" stroke="url(#paint30_linear_551_90)" stroke-linecap="round"/>
<path d="M118.899 440.519C119.793 439.875 121.533 437.218 123.191 437.427C124.848 437.637 125.176 441.571 126.855 441.527C128.535 441.482 129.597 436.988 131.254 437.213C132.91 437.438 133.191 441.902 134.805 442.606C136.42 443.311 137.392 439.844 139.003 440.593C140.613 441.343 140.858 446.217 142.536 446.203C144.213 446.188 145.406 440.193 147.053 440.522C148.7 440.852 148.789 447.516 150.442 447.786C152.094 448.055 153.294 441.982 154.984 441.818C156.674 441.653 156.932 446.381 158.555 446.996C160.177 447.61 161.893 445.231 162.771 444.767" stroke="url(#paint31_linear_551_90)" stroke-linecap="round"/>
<path d="M129.845 442.203C130.278 441.853 131.089 440.471 131.921 440.524C132.753 440.576 133.002 442.53 133.84 442.455C134.678 442.38 135.111 440.102 135.942 440.162C136.774 440.222 137.012 442.442 137.833 442.743C138.654 443.044 139.065 441.282 139.885 441.606C140.706 441.929 140.934 444.355 141.771 444.295C142.608 444.235 143.074 441.204 143.903 441.317C144.733 441.429 144.922 444.754 145.753 444.836C146.584 444.919 147.051 441.849 147.891 441.713C148.732 441.578 148.963 443.93 149.787 444.186C150.61 444.442 151.415 443.2 151.844 442.94" stroke="url(#paint32_linear_551_90)" stroke-linecap="round"/>
<defs>
<linearGradient id="paint0_linear_551_90" x1="195.608" y1="452.952" x2="85.2461" y2="438.446" gradientUnits="userSpaceOnUse">
<stop/>
<stop offset="1" stop-color="#838383" stop-opacity="0.5"/>
</linearGradient>
<linearGradient id="paint1_linear_551_90" x1="194.316" y1="449.272" x2="87.014" y2="439.913" gradientUnits="userSpaceOnUse">
<stop/>
<stop offset="1" stop-color="#838383" stop-opacity="0.5"/>
</linearGradient>
<linearGradient id="paint2_linear_551_90" x1="192.859" y1="445.784" x2="88.7474" y2="441.256" gradientUnits="userSpaceOnUse">
<stop/>
<stop offset="1" stop-color="#838383" stop-opacity="0.5"/>
</linearGradient>
<linearGradient id="paint3_linear_551_90" x1="191.25" y1="442.5" x2="90.4446" y2="442.5" gradientUnits="userSpaceOnUse">
<stop/>
<stop offset="1" stop-color="#838383" stop-opacity="0.5"/>
</linearGradient>
<linearGradient id="paint4_linear_551_90" x1="189.504" y1="439.427" x2="92.1085" y2="443.662" gradientUnits="userSpaceOnUse">
<stop/>
<stop offset="1" stop-color="#838383" stop-opacity="0.5"/>
</linearGradient>
<linearGradient id="paint5_linear_551_90" x1="187.633" y1="436.574" x2="93.7432" y2="444.763" gradientUnits="userSpaceOnUse">
<stop/>
<stop offset="1" stop-color="#838383" stop-opacity="0.5"/>
</linearGradient>
<linearGradient id="paint6_linear_551_90" x1="185.652" y1="433.948" x2="95.3556" y2="445.816" gradientUnits="userSpaceOnUse">
<stop/>
<stop offset="1" stop-color="#838383" stop-opacity="0.5"/>
</linearGradient>
<linearGradient id="paint7_linear_551_90" x1="183.576" y1="431.555" x2="96.9537" y2="446.834" gradientUnits="userSpaceOnUse">
<stop/>
<stop offset="1" stop-color="#838383" stop-opacity="0.5"/>
</linearGradient>
<linearGradient id="paint8_linear_551_90" x1="181.419" y1="429.399" x2="98.5479" y2="447.826" gradientUnits="userSpaceOnUse">
<stop/>
<stop offset="1" stop-color="#838383" stop-opacity="0.5"/>
</linearGradient>
<linearGradient id="paint9_linear_551_90" x1="179.196" y1="427.485" x2="100.148" y2="448.798" gradientUnits="userSpaceOnUse">
<stop/>
<stop offset="1" stop-color="#838383" stop-opacity="0.5"/>
</linearGradient>
<linearGradient id="paint10_linear_551_90" x1="176.923" y1="425.812" x2="101.767" y2="449.753" gradientUnits="userSpaceOnUse">
<stop/>
<stop offset="1" stop-color="#838383" stop-opacity="0.5"/>
</linearGradient>
<linearGradient id="paint11_linear_551_90" x1="174.614" y1="424.383" x2="103.414" y2="450.69" gradientUnits="userSpaceOnUse">
<stop/>
<stop offset="1" stop-color="#838383" stop-opacity="0.5"/>
</linearGradient>
<linearGradient id="paint12_linear_551_90" x1="172.284" y1="423.197" x2="105.1" y2="451.605" gradientUnits="userSpaceOnUse">
<stop/>
<stop offset="1" stop-color="#838383" stop-opacity="0.5"/>
</linearGradient>
<linearGradient id="paint13_linear_551_90" x1="169.948" y1="422.253" x2="106.835" y2="452.491" gradientUnits="userSpaceOnUse">
<stop/>
<stop offset="1" stop-color="#838383" stop-opacity="0.5"/>
</linearGradient>
<linearGradient id="paint14_linear_551_90" x1="167.62" y1="421.548" x2="108.627" y2="453.34" gradientUnits="userSpaceOnUse">
<stop/>
<stop offset="1" stop-color="#838383" stop-opacity="0.5"/>
</linearGradient>
<linearGradient id="paint15_linear_551_90" x1="165.314" y1="421.079" x2="110.483" y2="454.137" gradientUnits="userSpaceOnUse">
<stop/>
<stop offset="1" stop-color="#838383" stop-opacity="0.5"/>
</linearGradient>
<linearGradient id="paint16_linear_551_90" x1="163.044" y1="420.839" x2="112.407" y2="454.867" gradientUnits="userSpaceOnUse">
<stop/>
<stop offset="1" stop-color="#838383" stop-opacity="0.5"/>
</linearGradient>
<linearGradient id="paint17_linear_551_90" x1="160.825" y1="420.824" x2="114.399" y2="455.513" gradientUnits="userSpaceOnUse">
<stop/>
<stop offset="1" stop-color="#838383" stop-opacity="0.5"/>
</linearGradient>
<linearGradient id="paint18_linear_551_90" x1="158.668" y1="421.025" x2="116.456" y2="456.054" gradientUnits="userSpaceOnUse">
<stop/>
<stop offset="1" stop-color="#838383" stop-opacity="0.5"/>
</linearGradient>
<linearGradient id="paint19_linear_551_90" x1="156.586" y1="421.435" x2="118.572" y2="456.471" gradientUnits="userSpaceOnUse">
<stop/>
<stop offset="1" stop-color="#838383" stop-opacity="0.5"/>
</linearGradient>
<linearGradient id="paint20_linear_551_90" x1="154.593" y1="422.045" x2="120.736" y2="456.741" gradientUnits="userSpaceOnUse">
<stop/>
<stop offset="1" stop-color="#838383" stop-opacity="0.5"/>
</linearGradient>
<linearGradient id="paint21_linear_551_90" x1="152.698" y1="422.844" x2="122.931" y2="456.844" gradientUnits="userSpaceOnUse">
<stop/>
<stop offset="1" stop-color="#838383" stop-opacity="0.5"/>
</linearGradient>
<linearGradient id="paint22_linear_551_90" x1="150.913" y1="423.822" x2="125.137" y2="456.76" gradientUnits="userSpaceOnUse">
<stop/>
<stop offset="1" stop-color="#838383" stop-opacity="0.5"/>
</linearGradient>
<linearGradient id="paint23_linear_551_90" x1="149.248" y1="424.966" x2="127.328" y2="456.472" gradientUnits="userSpaceOnUse">
<stop/>
<stop offset="1" stop-color="#838383" stop-opacity="0.5"/>
</linearGradient>
<linearGradient id="paint24_linear_551_90" x1="147.713" y1="426.264" x2="129.475" y2="455.966" gradientUnits="userSpaceOnUse">
<stop/>
<stop offset="1" stop-color="#838383" stop-opacity="0.5"/>
</linearGradient>
<linearGradient id="paint25_linear_551_90" x1="146.314" y1="427.703" x2="131.542" y2="455.237" gradientUnits="userSpaceOnUse">
<stop/>
<stop offset="1" stop-color="#838383" stop-opacity="0.5"/>
</linearGradient>
<linearGradient id="paint26_linear_551_90" x1="145.062" y1="429.269" x2="133.494" y2="454.278" gradientUnits="userSpaceOnUse">
<stop/>
<stop offset="1" stop-color="#838383" stop-opacity="0.5"/>
</linearGradient>
<linearGradient id="paint27_linear_551_90" x1="143.963" y1="430.946" x2="135.29" y2="453.096" gradientUnits="userSpaceOnUse">
<stop/>
<stop offset="1" stop-color="#838383" stop-opacity="0.5"/>
</linearGradient>
<linearGradient id="paint28_linear_551_90" x1="143.022" y1="432.721" x2="136.893" y2="451.703" gradientUnits="userSpaceOnUse">
<stop/>
<stop offset="1" stop-color="#838383" stop-opacity="0.5"/>
</linearGradient>
<linearGradient id="paint29_linear_551_90" x1="142.245" y1="434.578" x2="138.265" y2="450.117" gradientUnits="userSpaceOnUse">
<stop/>
<stop offset="1" stop-color="#838383" stop-opacity="0.5"/>
</linearGradient>
<linearGradient id="paint30_linear_551_90" x1="141.636" y1="436.5" x2="139.371" y2="448.367" gradientUnits="userSpaceOnUse">
<stop/>
<stop offset="1" stop-color="#838383" stop-opacity="0.5"/>
</linearGradient>
<linearGradient id="paint31_linear_551_90" x1="141.199" y1="438.472" x2="140.184" y2="446.487" gradientUnits="userSpaceOnUse">
<stop/>
<stop offset="1" stop-color="#838383" stop-opacity="0.5"/>
</linearGradient>
<linearGradient id="paint32_linear_551_90" x1="140.936" y1="440.477" x2="140.681" y2="444.516" gradientUnits="userSpaceOnUse">
<stop/>
<stop offset="1" stop-color="#838383" stop-opacity="0.5"/>
</linearGradient>
</defs>
</svg>
