<svg width="61" height="60" viewBox="0 0 61 60" fill="none" xmlns="http://www.w3.org/2000/svg">
<path d="M30.5 15V30H41.75M53 30C53 32.9547 52.418 35.8806 51.2873 38.6104C50.1566 41.3402 48.4992 43.8206 46.4099 45.9099C44.3206 47.9992 41.8402 49.6566 39.1104 50.7873C36.3806 51.918 33.4547 52.5 30.5 52.5C27.5453 52.5 24.6194 51.918 21.8896 50.7873C19.1598 49.6566 16.6794 47.9992 14.5901 45.9099C12.5008 43.8206 10.8434 41.3402 9.71271 38.6104C8.58198 35.8806 8 32.9547 8 30C8 24.0326 10.3705 18.3097 14.5901 14.0901C18.8097 9.87053 24.5326 7.5 30.5 7.5C36.4674 7.5 42.1903 9.87053 46.4099 14.0901C50.6295 18.3097 53 24.0326 53 30Z" stroke="white" stroke-width="1.5" stroke-linecap="round" stroke-linejoin="round"/>
</svg>
