<svg width="61" height="60" viewBox="0 0 61 60" fill="none" xmlns="http://www.w3.org/2000/svg">
<path d="M29.05 37.925L43.625 52.5C44.875 53.71 46.5505 54.3803 48.2902 54.3662C50.0299 54.352 51.6943 53.6547 52.9245 52.4245C54.1547 51.1943 54.852 49.5299 54.8662 47.7902C54.8803 46.0505 54.21 44.375 53 43.125L38.3075 28.4325M29.05 37.925L35.29 30.35C36.0825 29.39 37.14 28.785 38.31 28.435C39.685 28.025 41.2175 27.965 42.6675 28.085C44.6221 28.2528 46.5865 27.9066 48.366 27.0808C50.1455 26.2549 51.678 24.9781 52.8116 23.377C53.9452 21.7759 54.6404 19.9062 54.8283 17.9535C55.0161 16.0007 54.6901 14.0328 53.8825 12.245L45.6925 20.4375C44.3223 20.1207 43.0685 19.4254 42.0741 18.4309C41.0796 17.4365 40.3843 16.1827 40.0675 14.8125L48.2575 6.6225C46.4697 5.81491 44.5017 5.48886 42.549 5.67671C40.5962 5.86456 38.7266 6.55978 37.1255 7.69337C35.5244 8.82697 34.2476 10.3595 33.4217 12.139C32.5958 13.9184 32.2497 15.8829 32.4175 17.8375C32.645 20.5275 32.24 23.4975 30.1575 25.2125L29.9025 25.425M29.05 37.925L17.4125 52.0575C16.8485 52.745 16.1467 53.3068 15.3525 53.7068C14.5582 54.1067 13.689 54.3359 12.8008 54.3796C11.9126 54.4233 11.0251 54.2806 10.1954 53.9606C9.36572 53.6406 8.61222 53.1504 7.98341 52.5216C7.3546 51.8928 6.86441 51.1393 6.54441 50.3096C6.2244 49.4799 6.08166 48.5924 6.12538 47.7042C6.16909 46.816 6.3983 45.9468 6.79823 45.1525C7.19817 44.3582 7.75997 43.6565 8.44749 43.0925L25.54 29.0175L15.2725 18.75H11.75L6.12499 9.375L9.87499 5.625L19.25 11.25V14.7725L29.9 25.4225L25.5375 29.015M46.4375 45.9375L39.875 39.375M12.6675 47.8125H12.6875V47.8325H12.6675V47.8125Z" stroke="white" stroke-width="1.5" stroke-linecap="round" stroke-linejoin="round"/>
</svg>
