<svg width="50" height="50" viewBox="0 0 50 50" fill="none" xmlns="http://www.w3.org/2000/svg">
<path d="M8.81455 41.9033L8.81458 41.901C8.88074 37.652 10.6151 33.5994 13.6433 30.618C16.6715 27.6366 20.7506 25.9655 25.0001 25.9655C29.2497 25.9655 33.3288 27.6366 36.357 30.618C39.3851 33.5994 41.1195 37.652 41.1857 41.901L41.1857 41.9032C41.1876 42.0126 41.1577 42.1201 41.0995 42.2127C41.0413 42.3053 40.9573 42.3789 40.8579 42.4245C35.8833 44.7053 30.474 45.8824 25.0015 45.875H25.0001C19.3427 45.875 13.9702 44.6406 9.14229 42.4245C9.0429 42.3789 8.95897 42.3053 8.90077 42.2127C8.84255 42.1201 8.81259 42.0126 8.81455 41.9033ZM16.6251 12.5C16.6251 10.2788 17.5075 8.1486 19.0781 6.57798C20.6487 5.00736 22.7789 4.125 25.0001 4.125C27.2213 4.125 29.3515 5.00736 30.9221 6.57798C32.4928 8.1486 33.3751 10.2788 33.3751 12.5C33.3751 14.7212 32.4928 16.8514 30.9221 18.422C29.3515 19.9926 27.2213 20.875 25.0001 20.875C22.7789 20.875 20.6487 19.9926 19.0781 18.422C17.5075 16.8514 16.6251 14.7212 16.6251 12.5Z" stroke="white" stroke-width="2"/>
</svg>
