<svg width="60" height="60" viewBox="0 0 60 60" fill="none" xmlns="http://www.w3.org/2000/svg">
<path d="M19.0018 21.6409V29.3733C19.0018 33.0271 21.9729 35.9983 25.6267 35.9983C29.2806 35.9983 32.2517 33.0271 32.2517 29.3733V25.9983H43.1267C43.6135 25.9983 44.0017 26.3865 44.0017 26.8733V30.6233C44.0017 31.11 43.6135 31.4983 43.1267 31.4983H42.5017H41.5017V32.4983V37.4983C41.5017 38.3288 40.8322 38.9983 40.0017 38.9983H38.7517H37.7517V39.9983C37.7517 42.2038 35.9573 43.9982 33.7517 43.9982H23.0799H22.8119L22.5799 44.1322L14.5032 48.7955C14.5031 48.7955 14.5031 48.7955 14.503 48.7955C13.7823 49.21 12.8643 48.962 12.4546 48.2497L12.4538 48.2483L6.20381 37.4202L6.20211 37.4173C5.78677 36.7033 6.03319 35.7854 6.75036 35.3729L6.75188 35.372L13.0019 31.7627L13.5018 31.474V30.8967V27.2014C13.5018 25.802 14.2397 24.4964 15.4433 23.7792L15.4433 23.7792L15.4465 23.7773L19.0018 21.6409ZM48.5017 27.3676V26.8733C48.5017 23.9069 46.0931 21.4983 43.1267 21.4983H28.7517H27.7517V22.4983V29.3733C27.7517 30.5476 26.801 31.4983 25.6267 31.4983C24.4525 31.4983 23.5018 30.5476 23.5018 29.3733V19.5061C23.5018 18.9851 23.7667 18.5066 24.1987 18.24L24.2029 18.2373L26.8163 16.6069C26.8169 16.6065 26.8176 16.6061 26.8182 16.6057C27.4604 16.2096 28.1924 15.9983 28.9392 15.9983H36.9236H37.1916L37.4236 15.8643L45.5003 11.2011C45.5005 11.201 45.5006 11.2009 45.5008 11.2008C46.2215 10.7867 47.1393 11.0346 47.5489 11.7469L47.5497 11.7482L53.7989 22.575C53.799 22.5752 53.7992 22.5755 53.7993 22.5757C54.2113 23.2929 53.969 24.2063 53.2501 24.6254C53.2497 24.6256 53.2493 24.6258 53.2489 24.6261L48.5017 27.3676Z" stroke="white" stroke-width="2"/>
</svg>
